# This file uses centimeters as units for non-parametric coordinates.

mtllib Mentese.mtl
g default
v 0.265427 0.022202 0.342285
v 0.431137 0.022202 0.342285
v 0.265427 3.780715 0.342285
v 0.431137 3.780715 0.342285
v 0.265427 3.780715 -0.342285
v 0.431137 3.780715 -0.342285
v 0.265427 0.022202 -0.342285
v 0.431137 0.022202 -0.342285
v 0.265427 4.003113 0.000000
v 0.431137 4.003113 0.000000
v 0.431137 0.022202 0.000000
v 0.265427 0.022202 0.000000
v 0.265427 0.022202 -0.171143
v 0.431137 0.022202 -0.171143
v 0.431137 3.961799 -0.171143
v 0.265427 3.961799 -0.171143
v 0.265427 3.961799 0.171143
v 0.431137 3.961799 0.171143
v 0.431137 0.022202 0.171143
v 0.265427 0.022202 0.171143
v 0.265427 0.022202 -0.256714
v 0.431137 0.022202 -0.256714
v 0.431137 3.900078 -0.256714
v 0.265427 3.900078 -0.256714
v 0.265427 3.900078 0.256714
v 0.431137 3.900078 0.256714
v 0.431137 0.022202 0.256714
v 0.265427 0.022202 0.256714
v 0.265427 3.990208 -0.085571
v 0.431137 3.990208 -0.085571
v 0.431137 0.022202 -0.085571
v 0.265427 0.022202 -0.085571
v 0.431137 0.022202 0.085571
v 0.431137 3.990208 0.085571
v 0.265427 3.990208 0.085571
v 0.265427 0.022202 0.085571
v -0.431137 0.022202 0.342285
v -0.265426 0.022202 0.342285
v -0.431137 3.780715 0.342285
v -0.265426 3.780715 0.342285
v -0.431137 3.780715 -0.342285
v -0.265426 3.780715 -0.342285
v -0.431137 0.022202 -0.342285
v -0.265426 0.022202 -0.342285
v -0.431137 4.003113 0.000000
v -0.265426 4.003113 0.000000
v -0.265426 0.022202 0.000000
v -0.431137 0.022202 0.000000
v -0.431137 0.022202 -0.171143
v -0.265426 0.022202 -0.171143
v -0.265426 3.961799 -0.171143
v -0.431137 3.961799 -0.171143
v -0.431137 3.961799 0.171143
v -0.265426 3.961799 0.171143
v -0.265426 0.022202 0.171143
v -0.431137 0.022202 0.171143
v -0.431137 0.022202 -0.256714
v -0.265426 0.022202 -0.256714
v -0.265426 3.900078 -0.256714
v -0.431137 3.900078 -0.256714
v -0.431137 3.900078 0.256714
v -0.265426 3.900078 0.256714
v -0.265426 0.022202 0.256714
v -0.431137 0.022202 0.256714
v -0.431137 3.990208 -0.085571
v -0.265426 3.990208 -0.085571
v -0.265426 0.022202 -0.085571
v -0.431137 0.022202 -0.085571
v -0.265426 0.022202 0.085571
v -0.265426 3.990208 0.085571
v -0.431137 3.990208 0.085571
v -0.431137 0.022202 0.085571
v 0.474256 3.704273 -0.058300
v 0.474256 3.661594 -0.100978
v 0.474256 3.603295 -0.116599
v 0.474256 3.544995 -0.100978
v 0.474256 3.502317 -0.058300
v 0.474256 3.486696 0.000000
v 0.474256 3.502317 0.058300
v 0.474256 3.544995 0.100978
v 0.474256 3.603295 0.116599
v 0.474256 3.661594 0.100978
v 0.474256 3.704273 0.058300
v 0.474256 3.719894 0.000000
v -0.474256 3.704273 -0.058300
v -0.474256 3.661594 -0.100978
v -0.474256 3.603295 -0.116599
v -0.474256 3.544995 -0.100978
v -0.474256 3.502317 -0.058300
v -0.474256 3.486696 0.000000
v -0.474256 3.502317 0.058300
v -0.474256 3.544995 0.100978
v -0.474256 3.603295 0.116599
v -0.474256 3.661594 0.100978
v -0.474256 3.704273 0.058300
v -0.474256 3.719894 0.000000
v 0.474256 3.603295 0.000000
v -0.474256 3.603295 0.000000
vt 0.375000 0.000000
vt 0.625000 0.000000
vt 0.375000 0.250000
vt 0.625000 0.250000
vt 0.375000 0.500000
vt 0.625000 0.500000
vt 0.375000 0.750000
vt 0.625000 0.750000
vt 0.375000 1.000000
vt 0.625000 1.000000
vt 0.875000 0.000000
vt 0.875000 0.250000
vt 0.125000 0.000000
vt 0.125000 0.250000
vt 0.250000 0.250000
vt 0.375000 0.375000
vt 0.625000 0.375000
vt 0.750000 0.250000
vt 0.625000 0.875000
vt 0.750000 0.000000
vt 0.250000 0.000000
vt 0.375000 0.875000
vt 0.187500 0.000000
vt 0.375000 0.812500
vt 0.625000 0.812500
vt 0.812500 0.000000
vt 0.625000 0.437500
vt 0.812500 0.250000
vt 0.187500 0.250000
vt 0.375000 0.437500
vt 0.312500 0.250000
vt 0.375000 0.312500
vt 0.625000 0.312500
vt 0.687500 0.250000
vt 0.625000 0.937500
vt 0.687500 0.000000
vt 0.312500 0.000000
vt 0.375000 0.937500
vt 0.156250 0.000000
vt 0.375000 0.781250
vt 0.625000 0.781250
vt 0.843750 0.000000
vt 0.625000 0.468750
vt 0.843750 0.250000
vt 0.156250 0.250000
vt 0.375000 0.468750
vt 0.343750 0.250000
vt 0.375000 0.281250
vt 0.625000 0.281250
vt 0.656250 0.250000
vt 0.625000 0.968750
vt 0.656250 0.000000
vt 0.343750 0.000000
vt 0.375000 0.968750
vt 0.218750 0.250000
vt 0.375000 0.406250
vt 0.625000 0.406250
vt 0.781250 0.250000
vt 0.625000 0.843750
vt 0.781250 0.000000
vt 0.218750 0.000000
vt 0.375000 0.843750
vt 0.625000 0.906250
vt 0.718750 0.000000
vt 0.625000 0.343750
vt 0.718750 0.250000
vt 0.281250 0.250000
vt 0.375000 0.343750
vt 0.281250 0.000000
vt 0.375000 0.906250
vt 0.375000 0.000000
vt 0.625000 0.000000
vt 0.625000 0.250000
vt 0.375000 0.250000
vt 0.375000 0.406250
vt 0.625000 0.406250
vt 0.625000 0.437500
vt 0.375000 0.437500
vt 0.375000 0.500000
vt 0.625000 0.500000
vt 0.625000 0.750000
vt 0.375000 0.750000
vt 0.375000 0.812500
vt 0.625000 0.812500
vt 0.625000 0.843750
vt 0.375000 0.843750
vt 0.781250 0.250000
vt 0.781250 0.000000
vt 0.812500 0.000000
vt 0.812500 0.250000
vt 0.187500 0.250000
vt 0.187500 0.000000
vt 0.218750 0.000000
vt 0.218750 0.250000
vt 0.375000 0.312500
vt 0.625000 0.312500
vt 0.625000 0.343750
vt 0.375000 0.343750
vt 0.687500 0.250000
vt 0.687500 0.000000
vt 0.718750 0.000000
vt 0.718750 0.250000
vt 0.375000 0.906250
vt 0.625000 0.906250
vt 0.625000 0.937500
vt 0.375000 0.937500
vt 0.281250 0.250000
vt 0.281250 0.000000
vt 0.312500 0.000000
vt 0.312500 0.250000
vt 0.375000 0.781250
vt 0.625000 0.781250
vt 0.843750 0.000000
vt 0.843750 0.250000
vt 0.625000 0.468750
vt 0.375000 0.468750
vt 0.156250 0.250000
vt 0.156250 0.000000
vt 0.375000 0.281250
vt 0.625000 0.281250
vt 0.656250 0.250000
vt 0.656250 0.000000
vt 0.625000 0.968750
vt 0.375000 0.968750
vt 0.343750 0.000000
vt 0.343750 0.250000
vt 0.875000 0.000000
vt 0.875000 0.250000
vt 0.125000 0.000000
vt 0.125000 0.250000
vt 0.625000 1.000000
vt 0.375000 1.000000
vt 0.375000 0.375000
vt 0.625000 0.375000
vt 0.750000 0.250000
vt 0.750000 0.000000
vt 0.625000 0.875000
vt 0.375000 0.875000
vt 0.250000 0.000000
vt 0.250000 0.250000
vt 0.375000 0.312500
vt 0.395833 0.312500
vt 0.395833 0.688440
vt 0.375000 0.688440
vt 0.416667 0.312500
vt 0.416667 0.688440
vt 0.437500 0.312500
vt 0.437500 0.688440
vt 0.458333 0.312500
vt 0.458333 0.688440
vt 0.479167 0.312500
vt 0.479167 0.688440
vt 0.500000 0.312500
vt 0.500000 0.688440
vt 0.520833 0.312500
vt 0.520833 0.688440
vt 0.541667 0.312500
vt 0.541667 0.688440
vt 0.562500 0.312500
vt 0.562500 0.688440
vt 0.583333 0.312500
vt 0.583333 0.688440
vt 0.604167 0.312500
vt 0.604167 0.688440
vt 0.625000 0.312500
vt 0.625000 0.688440
vt 0.578125 0.020934
vt 0.635316 0.078125
vt 0.500000 0.150000
vt 0.500000 0.000000
vt 0.421875 0.020934
vt 0.364684 0.078125
vt 0.343750 0.156250
vt 0.364684 0.234375
vt 0.421875 0.291566
vt 0.500000 0.312500
vt 0.578125 0.291566
vt 0.635316 0.234375
vt 0.656250 0.156250
vt 0.635316 0.921875
vt 0.578125 0.979066
vt 0.500000 0.837500
vt 0.500000 1.000000
vt 0.421875 0.979066
vt 0.364684 0.921875
vt 0.343750 0.843750
vt 0.364684 0.765625
vt 0.421875 0.708434
vt 0.500000 0.687500
vt 0.578125 0.708434
vt 0.635316 0.765625
vt 0.656250 0.843750
vn 0.000000 0.000000 1.000000
vn 0.000000 0.000000 1.000000
vn 0.000000 0.000000 1.000000
vn 0.000000 0.000000 1.000000
vn 0.000000 0.972077 -0.234662
vn 0.000000 0.972077 -0.234662
vn 0.000000 0.884801 -0.465969
vn 0.000000 0.884801 -0.465969
vn 0.000000 0.000000 -1.000000
vn 0.000000 0.000000 -1.000000
vn 0.000000 0.000000 -1.000000
vn 0.000000 0.000000 -1.000000
vn 0.000000 -1.000000 0.000000
vn 0.000000 -1.000000 0.000000
vn 0.000000 -1.000000 0.000000
vn 0.000000 -1.000000 0.000000
vn 1.000000 0.000000 0.000000
vn 1.000000 0.000000 0.000000
vn 1.000000 0.000000 0.000000
vn 1.000000 0.000000 0.000000
vn -1.000000 0.000000 0.000000
vn -1.000000 0.000000 0.000000
vn -1.000000 0.000000 0.000000
vn -1.000000 0.000000 0.000000
vn 0.000000 0.884801 0.465969
vn 0.000000 0.884801 0.465969
vn 0.000000 0.972077 0.234662
vn 0.000000 0.972077 0.234662
vn 1.000000 0.000000 0.000000
vn 1.000000 0.000000 0.000000
vn 1.000000 0.000000 0.000000
vn 1.000000 0.000000 0.000000
vn 0.000000 -1.000000 0.000000
vn 0.000000 -1.000000 0.000000
vn 0.000000 -1.000000 0.000000
vn 0.000000 -1.000000 0.000000
vn -1.000000 0.000000 0.000000
vn -1.000000 0.000000 0.000000
vn -1.000000 0.000000 0.000000
vn -1.000000 0.000000 0.000000
vn 0.000000 -1.000000 0.000000
vn 0.000000 -1.000000 0.000000
vn 1.000000 0.000000 0.000000
vn 1.000000 0.000000 0.000000
vn 0.000000 0.686876 -0.726774
vn 0.000000 0.686876 -0.726774
vn -1.000000 0.000000 0.000000
vn -1.000000 0.000000 0.000000
vn 0.000000 0.686876 0.726774
vn 0.000000 0.686876 0.726774
vn 1.000000 0.000000 0.000000
vn 1.000000 0.000000 0.000000
vn 0.000000 -1.000000 0.000000
vn 0.000000 -1.000000 0.000000
vn -1.000000 0.000000 0.000000
vn -1.000000 0.000000 0.000000
vn 0.000000 -1.000000 0.000000
vn 0.000000 -1.000000 0.000000
vn 1.000000 0.000000 0.000000
vn 1.000000 0.000000 0.000000
vn 0.000000 0.582644 -0.812728
vn 0.000000 0.582644 -0.812728
vn -1.000000 0.000000 0.000000
vn -1.000000 0.000000 0.000000
vn 0.000000 0.582644 0.812728
vn 0.000000 0.582644 0.812728
vn 1.000000 0.000000 0.000000
vn 1.000000 0.000000 0.000000
vn 0.000000 -1.000000 0.000000
vn 0.000000 -1.000000 0.000000
vn -1.000000 0.000000 0.000000
vn -1.000000 0.000000 0.000000
vn 0.000000 1.000000 0.000000
vn 0.000000 1.000000 0.000000
vn 1.000000 0.000000 0.000000
vn 1.000000 0.000000 0.000000
vn 0.000000 -1.000000 0.000000
vn 0.000000 -1.000000 0.000000
vn -1.000000 0.000000 0.000000
vn -1.000000 0.000000 0.000000
vn 0.000000 0.000000 1.000000
vn 0.000000 0.000000 1.000000
vn 0.000000 0.000000 1.000000
vn 0.000000 0.000000 1.000000
vn 0.000000 0.972077 -0.234662
vn 0.000000 0.972077 -0.234662
vn 0.000000 0.884801 -0.465969
vn 0.000000 0.884801 -0.465969
vn 0.000000 0.000000 -1.000000
vn 0.000000 0.000000 -1.000000
vn 0.000000 0.000000 -1.000000
vn 0.000000 0.000000 -1.000000
vn 0.000000 -1.000000 0.000000
vn 0.000000 -1.000000 0.000000
vn 0.000000 -1.000000 0.000000
vn 0.000000 -1.000000 0.000000
vn 1.000000 0.000000 0.000000
vn 1.000000 0.000000 0.000000
vn 1.000000 0.000000 0.000000
vn 1.000000 0.000000 0.000000
vn -1.000000 0.000000 0.000000
vn -1.000000 0.000000 0.000000
vn -1.000000 0.000000 0.000000
vn -1.000000 0.000000 0.000000
vn 0.000000 0.884801 0.465969
vn 0.000000 0.884801 0.465969
vn 0.000000 0.972077 0.234662
vn 0.000000 0.972077 0.234662
vn 1.000000 0.000000 0.000000
vn 1.000000 0.000000 0.000000
vn 1.000000 0.000000 0.000000
vn 1.000000 0.000000 0.000000
vn 0.000000 -1.000000 0.000000
vn 0.000000 -1.000000 0.000000
vn 0.000000 -1.000000 0.000000
vn 0.000000 -1.000000 0.000000
vn -1.000000 0.000000 0.000000
vn -1.000000 0.000000 0.000000
vn -1.000000 0.000000 0.000000
vn -1.000000 0.000000 0.000000
vn 0.000000 -1.000000 0.000000
vn 0.000000 -1.000000 0.000000
vn 1.000000 0.000000 0.000000
vn 1.000000 0.000000 0.000000
vn 0.000000 0.686876 -0.726774
vn 0.000000 0.686876 -0.726774
vn -1.000000 0.000000 0.000000
vn -1.000000 0.000000 0.000000
vn 0.000000 0.686876 0.726774
vn 0.000000 0.686876 0.726774
vn 1.000000 0.000000 0.000000
vn 1.000000 0.000000 0.000000
vn 0.000000 -1.000000 0.000000
vn 0.000000 -1.000000 0.000000
vn -1.000000 0.000000 0.000000
vn -1.000000 0.000000 0.000000
vn 0.000000 -1.000000 0.000000
vn 0.000000 -1.000000 0.000000
vn 1.000000 0.000000 0.000000
vn 1.000000 0.000000 0.000000
vn 0.000000 0.582644 -0.812728
vn 0.000000 0.582644 -0.812728
vn -1.000000 0.000000 0.000000
vn -1.000000 0.000000 0.000000
vn 0.000000 0.582644 0.812728
vn 0.000000 0.582644 0.812728
vn 1.000000 0.000000 0.000000
vn 1.000000 0.000000 0.000000
vn 0.000000 -1.000000 0.000000
vn 0.000000 -1.000000 0.000000
vn -1.000000 0.000000 0.000000
vn -1.000000 0.000000 0.000000
vn 0.000000 1.000000 0.000000
vn 0.000000 1.000000 0.000000
vn 1.000000 0.000000 0.000000
vn 1.000000 0.000000 0.000000
vn 0.000000 -1.000000 0.000000
vn 0.000000 -1.000000 0.000000
vn -1.000000 0.000000 0.000000
vn -1.000000 0.000000 0.000000
vn 0.000000 0.707107 -0.707106
vn 0.000000 0.707107 -0.707106
vn 0.000000 0.707107 -0.707106
vn 0.000000 0.707107 -0.707106
vn 0.000000 0.258820 -0.965926
vn 0.000000 0.258820 -0.965926
vn 0.000000 0.258820 -0.965926
vn 0.000000 0.258820 -0.965926
vn 0.000000 -0.258820 -0.965926
vn 0.000000 -0.258820 -0.965926
vn 0.000000 -0.258820 -0.965926
vn 0.000000 -0.258820 -0.965926
vn 0.000000 -0.707105 -0.707108
vn 0.000000 -0.707105 -0.707108
vn 0.000000 -0.707105 -0.707108
vn 0.000000 -0.707105 -0.707108
vn 0.000000 -0.965926 -0.258818
vn 0.000000 -0.965926 -0.258818
vn 0.000000 -0.965926 -0.258818
vn 0.000000 -0.965926 -0.258818
vn 0.000000 -0.965926 0.258818
vn 0.000000 -0.965926 0.258818
vn 0.000000 -0.965926 0.258818
vn 0.000000 -0.965926 0.258818
vn 0.000000 -0.707105 0.707108
vn 0.000000 -0.707105 0.707108
vn 0.000000 -0.707105 0.707108
vn 0.000000 -0.707105 0.707108
vn 0.000000 -0.258820 0.965926
vn 0.000000 -0.258820 0.965926
vn 0.000000 -0.258820 0.965926
vn 0.000000 -0.258820 0.965926
vn 0.000000 0.258820 0.965926
vn 0.000000 0.258820 0.965926
vn 0.000000 0.258820 0.965926
vn 0.000000 0.258820 0.965926
vn 0.000000 0.707107 0.707106
vn 0.000000 0.707107 0.707106
vn 0.000000 0.707107 0.707106
vn 0.000000 0.707107 0.707106
vn 0.000000 0.965925 0.258822
vn 0.000000 0.965925 0.258822
vn 0.000000 0.965925 0.258822
vn 0.000000 0.965925 0.258822
vn 0.000000 0.965925 -0.258822
vn 0.000000 0.965925 -0.258822
vn 0.000000 0.965925 -0.258822
vn 0.000000 0.965925 -0.258822
vn 1.000000 0.000000 0.000000
vn 1.000000 0.000000 0.000000
vn 1.000000 0.000000 0.000000
vn 1.000000 0.000000 0.000000
vn 1.000000 0.000000 0.000000
vn 1.000000 0.000000 0.000000
vn 1.000000 0.000000 0.000000
vn 1.000000 0.000000 0.000000
vn 1.000000 0.000000 0.000000
vn 1.000000 0.000000 0.000000
vn 1.000000 0.000000 0.000000
vn 1.000000 0.000000 0.000000
vn 1.000000 0.000000 0.000000
vn -1.000000 0.000000 0.000000
vn -1.000000 0.000000 0.000000
vn -1.000000 0.000000 0.000000
vn -1.000000 0.000000 0.000000
vn -1.000000 0.000000 0.000000
vn -1.000000 0.000000 0.000000
vn -1.000000 0.000000 0.000000
vn -1.000000 0.000000 0.000000
vn -1.000000 0.000000 0.000000
vn -1.000000 0.000000 0.000000
vn -1.000000 0.000000 0.000000
vn -1.000000 0.000000 0.000000
vn -1.000000 0.000000 0.000000
s off
g pCube4
usemtl initialShadingGroup
f 1/1/1 2/2/2 4/4/3 3/3/4
s 1
f 29/56/5 30/57/6 15/27/7 16/30/8
s off
f 5/5/9 6/6/10 8/8/11 7/7/12
s 2
f 13/24/13 14/25/14 31/59/15 32/62/16
s 3
f 30/58/17 31/60/18 14/26/19 15/28/20
s 4
f 16/29/21 13/23/22 32/61/23 29/55/24
s 1
f 17/32/25 18/33/26 34/65/27 35/68/28
s 3
f 18/34/29 19/36/30 33/64/31 34/66/32
s 2
f 36/70/33 33/63/34 19/35/35 20/38/36
s 4
f 35/67/37 36/69/38 20/37/39 17/31/40
s 2
f 21/40/41 22/41/42 14/25/14 13/24/13
s 3
f 15/28/20 14/26/19 22/42/43 23/44/44
s 1
f 16/30/8 15/27/7 23/43/45 24/46/46
s 4
f 24/45/47 21/39/48 13/23/22 16/29/21
s 1
f 25/48/49 26/49/50 18/33/26 17/32/25
s 3
f 26/50/51 27/52/52 19/36/30 18/34/29
s 2
f 20/38/36 19/35/35 27/51/53 28/54/54
s 4
f 17/31/40 20/37/39 28/53/55 25/47/56
s 2
f 7/7/57 8/8/58 22/41/42 21/40/41
s 3
f 23/44/44 22/42/43 8/11/59 6/12/60
s 1
f 24/46/46 23/43/45 6/6/61 5/5/62
s 4
f 7/13/63 21/39/48 24/45/47 5/14/64
s 1
f 3/3/65 4/4/66 26/49/50 25/48/49
s 3
f 2/2/67 27/52/52 26/50/51 4/4/68
s 2
f 28/54/54 27/51/53 2/10/69 1/9/70
s 4
f 25/47/56 28/53/55 1/1/71 3/3/72
s 1
f 9/16/73 10/17/74 30/57/6 29/56/5
s 3
f 10/18/75 11/20/76 31/60/18 30/58/17
s 2
f 32/62/16 31/59/15 11/19/77 12/22/78
s 4
f 29/55/24 32/61/23 12/21/79 9/15/80
s 3
f 34/66/32 33/64/31 11/20/76 10/18/75
s 1
f 35/68/28 34/65/27 10/17/74 9/16/73
s 4
f 9/15/80 12/21/79 36/69/38 35/67/37
s 2
f 12/22/78 11/19/77 33/63/34 36/70/33
s off
f 37/71/81 38/72/82 40/73/83 39/74/84
s 9
f 65/75/85 66/76/86 51/77/87 52/78/88
s off
f 41/79/89 42/80/90 44/81/91 43/82/92
s 10
f 49/83/93 50/84/94 67/85/95 68/86/96
s 11
f 66/87/97 67/88/98 50/89/99 51/90/100
s 12
f 52/91/101 49/92/102 68/93/103 65/94/104
s 9
f 53/95/105 54/96/106 70/97/107 71/98/108
s 11
f 54/99/109 55/100/110 69/101/111 70/102/112
s 10
f 72/103/113 69/104/114 55/105/115 56/106/116
s 12
f 71/107/117 72/108/118 56/109/119 53/110/120
s 10
f 57/111/121 58/112/122 50/84/94 49/83/93
s 11
f 51/90/100 50/89/99 58/113/123 59/114/124
s 9
f 52/78/88 51/77/87 59/115/125 60/116/126
s 12
f 60/117/127 57/118/128 49/92/102 52/91/101
s 9
f 61/119/129 62/120/130 54/96/106 53/95/105
s 11
f 62/121/131 63/122/132 55/100/110 54/99/109
s 10
f 56/106/116 55/105/115 63/123/133 64/124/134
s 12
f 53/110/120 56/109/119 64/125/135 61/126/136
s 10
f 43/82/137 44/81/138 58/112/122 57/111/121
s 11
f 59/114/124 58/113/123 44/127/139 42/128/140
s 9
f 60/116/126 59/115/125 42/80/141 41/79/142
s 12
f 43/129/143 57/118/128 60/117/127 41/130/144
s 9
f 39/74/145 40/73/146 62/120/130 61/119/129
s 11
f 38/72/147 63/122/132 62/121/131 40/73/148
s 10
f 64/124/134 63/123/133 38/131/149 37/132/150
s 12
f 61/126/136 64/125/135 37/71/151 39/74/152
s 9
f 45/133/153 46/134/154 66/76/86 65/75/85
s 11
f 46/135/155 47/136/156 67/88/98 66/87/97
s 10
f 68/86/96 67/85/95 47/137/157 48/138/158
s 12
f 65/94/104 68/93/103 48/139/159 45/140/160
s 11
f 70/102/112 69/101/111 47/136/156 46/135/155
s 9
f 71/98/108 70/97/107 46/134/154 45/133/153
s 12
f 45/140/160 48/139/159 72/108/118 71/107/117
s 10
f 48/138/158 47/137/157 69/104/114 72/103/113
s off
f 73/141/161 74/142/162 86/143/163 85/144/164
f 74/142/165 75/145/166 87/146/167 86/143/168
f 75/145/169 76/147/170 88/148/171 87/146/172
f 76/147/173 77/149/174 89/150/175 88/148/176
f 77/149/177 78/151/178 90/152/179 89/150/180
f 78/151/181 79/153/182 91/154/183 90/152/184
f 79/153/185 80/155/186 92/156/187 91/154/188
f 80/155/189 81/157/190 93/158/191 92/156/192
f 81/157/193 82/159/194 94/160/195 93/158/196
f 82/159/197 83/161/198 95/162/199 94/160/200
f 83/161/201 84/163/202 96/164/203 95/162/204
f 84/163/205 73/165/206 85/166/207 96/164/208
s 17
f 74/167/209 73/168/210 97/169/211
f 75/170/212 74/167/209 97/169/211
f 76/171/213 75/170/212 97/169/211
f 77/172/214 76/171/213 97/169/211
f 78/173/215 77/172/214 97/169/211
f 79/174/216 78/173/215 97/169/211
f 80/175/217 79/174/216 97/169/211
f 81/176/218 80/175/217 97/169/211
f 82/177/219 81/176/218 97/169/211
f 83/178/220 82/177/219 97/169/211
f 84/179/221 83/178/220 97/169/211
f 73/168/210 84/179/221 97/169/211
s 18
f 85/180/222 86/181/223 98/182/224
f 86/181/223 87/183/225 98/182/224
f 87/183/225 88/184/226 98/182/224
f 88/184/226 89/185/227 98/182/224
f 89/185/227 90/186/228 98/182/224
f 90/186/228 91/187/229 98/182/224
f 91/187/229 92/188/230 98/182/224
f 92/188/230 93/189/231 98/182/224
f 93/189/231 94/190/232 98/182/224
f 94/190/232 95/191/233 98/182/224
f 95/191/233 96/192/234 98/182/224
f 96/192/234 85/180/222 98/182/224
